# xmcd CD database file
# Copyright (C) 1993-1996 Ti Kan
#
# Track frame offsets:
# 150
# 13917
# 26840
# 39415
# 56917
# 80692
# 92737
# 107365
# 119797
# 136190
# 148662
# 159737
# 173127
# 186240
# 201367
# 211990
# 224217
# 241040
# 252342
# 261282
# 277867
# 292767
# 307175
# 320665
# 329672
# 342812
#
# Disc length: 4710 seconds
#
# Revision: 0
# Processed by: cddbd v1.4b41PL1 Copyright (c) Steve Scherf et al.
# Submitted via: inCDius 1.1b5
#
DISCID=9a12641a
DTITLE=Jimmy Dean - Big Bad John
DYEAR=1900
DGENRE=
TTITLE0=Big Bad John
TTITLE1=I Won't Go Huntin' With You Jake
TTITLE2=Smoke, Smoke, Smoke That Cigarette
TTITLE3=Dear Ivan
TTITLE4=To A Sleeping Beauty
TTITLE5=The Cajun Queen
TTITLE6=P. T. 109
TTITLE7=Walk On Boy
TTITLE8=Little Bitty Big John
TTITLE9=Steel Men
TTITLE10=Little Black Book
TTITLE11=Please Pass The Biscuits
TTITLE12=Gonna Raise A Ruckus Tonight
TTITLE13=A Day That Changed The World
TTITLE14=Gotta Travel On
TTITLE15=Sixteen Tons
TTITLE16=Oklahoma Bill
TTITLE17=Night Train To Memphis
TTITLE18=Make The Waterwheel Roll
TTITLE19=Lonesome Road
TTITLE20=GrassHopper Mac Clain
TTITLE21=Old Pappy's New Banjo
TTITLE22=You're Nobody Till Somebody Loves You
TTITLE23=Cajun Joe
TTITLE24=Nobody
TTITLE25=Kentucky Means Paradise
EXTD=
EXTT0=
EXTT1=
EXTT2=
EXTT3=
EXTT4=
EXTT5=
EXTT6=
EXTT7=
EXTT8=
EXTT9=
EXTT10=
EXTT11=
EXTT12=
EXTT13=
EXTT14=
EXTT15=
EXTT16=
EXTT17=
EXTT18=
EXTT19=
EXTT20=
EXTT21=
EXTT22=
EXTT23=
EXTT24=
EXTT25=
PLAYORDER=
